<svg xmlns="http://www.w3.org/2000/svg" xmlns:xlink="http://www.w3.org/1999/xlink" style="width:0;height:0;visibility:hidden;">
   <defs/>
   <symbol id="rd-icon-spotter" viewBox="0 0 48 48" fill="#222A30">
  <path d="M41.2 11.2L39 16L36.8 11.2L32 9L36.8 6.8L39 2L41.2 6.8L46 9L41.2 11.2Z"/>
  <path d="M30 28.5C31.3808 28.5 32.5 27.3808 32.5 26C32.5 24.6192 31.3808 23.5 30 23.5C28.6192 23.5 27.5 24.6192 27.5 26C27.5 27.3808 28.6192 28.5 30 28.5Z"/>
  <path d="M41.54 17.16L39.7 21.18C39.88 22.1 40 23.04 40 24C40 32.82 32.82 40 24 40C15.18 40 8 32.82 8 24C8 23.9 8.02 23.8 8 23.72C13.2 21.76 17.38 17.74 19.48 12.62C23.16 17.12 28.74 20 35 20C35.9 20 36.78 19.92 37.66 19.8L36.46 17.16L34.7 13.3L25.26 9L30.84 6.46L32.26 5.82C29.74 4.66 26.94 4 24 4C12.96 4 4 12.96 4 24C4 35.04 12.96 44 24 44C35.04 44 44 35.04 44 24C44 21.06 43.34 18.26 42.2 15.74L41.54 17.16Z"/>
  <path d="M18 28.5C19.3807 28.5 20.5 27.3808 20.5 26C20.5 24.6192 19.3807 23.5 18 23.5C16.6193 23.5 15.5 24.6192 15.5 26C15.5 27.3808 16.6193 28.5 18 28.5Z"/>
</symbol>
</svg>
